<?xml version="1.0" encoding="utf-8"?>
<!-- Generator: Adobe Illustrator 22.0.1, SVG Export Plug-In . SVG Version: 6.00 Build 0)  -->
<svg version="1.1" id="Calque_1" xmlns="http://www.w3.org/2000/svg" xmlns:xlink="http://www.w3.org/1999/xlink" x="0px" y="0px"
	 viewBox="0 0 841.9 595.3" style="enable-background:new 0 0 841.9 595.3;" xml:space="preserve">
<style type="text/css">
	.st0{fill:#32545C;}
</style>
<g>
	<path class="st0" d="M421.9,379.5c-42.2,0-76.5-34.3-76.5-76.5c0-42.2,34.3-76.5,76.5-76.5c42.2,0,76.5,34.3,76.5,76.5
		C498.4,345.2,464.1,379.5,421.9,379.5z M421.9,239.8c-34.8,0-63.2,28.3-63.2,63.2c0,34.8,28.3,63.2,63.2,63.2
		c34.9,0,63.2-28.3,63.2-63.2C485.1,268.1,456.7,239.8,421.9,239.8z"/>
	<g>
		<path class="st0" d="M362.3,236.3c1.9,2.2,1.7,5.6-0.5,7.5l0,0c-2.2,1.9-5.6,1.7-7.5-0.5l-39.6-45.2c-1.9-2.2-1.7-5.6,0.5-7.5l0,0
			c2.2-1.9,5.6-1.7,7.5,0.5L362.3,236.3z"/>
	</g>
	<g>
		<path class="st0" d="M427.4,211.8c0,2.9-2.3,5.3-5.3,5.3l0,0c-2.9,0-5.3-2.3-5.4-5.3l-0.4-60.1c0-3,2.3-5.3,5.3-5.4l0,0
			c2.9,0,5.3,2.3,5.4,5.3L427.4,211.8z"/>
	</g>
	<g>
		<path class="st0" d="M331,288.4c2.9,0.2,5.1,2.8,4.9,5.7l0,0c-0.2,2.9-2.8,5.1-5.7,4.9l-59.9-4.9c-2.9-0.2-5.1-2.8-4.9-5.7l0,0
			c0.2-2.9,2.8-5.1,5.7-4.9L331,288.4z"/>
	</g>
	<g>
		<path class="st0" d="M340.6,345.3c2.5-1.6,5.8-0.8,7.3,1.6l0,0c1.6,2.5,0.8,5.8-1.7,7.3l-50.8,32.1c-2.5,1.6-5.8,0.8-7.3-1.6l0,0
			c-1.6-2.5-0.8-5.8,1.7-7.3L340.6,345.3z"/>
	</g>
	<g>
		<path class="st0" d="M386,384.9c1-2.8,4.1-4.1,6.9-3.1l0,0c2.7,1,4.1,4.1,3.1,6.9l-21.2,56.2c-1.1,2.8-4.1,4.1-6.8,3.1l0,0
			c-2.8-1-4.2-4.1-3.1-6.9L386,384.9z"/>
	</g>
	<g>
		<path class="st0" d="M500.8,356.5c-2.6-1.4-3.6-4.6-2.2-7.2l0,0c1.4-2.6,4.6-3.6,7.2-2.2l53.2,27.9c2.6,1.4,3.6,4.6,2.2,7.2l0,0
			c-1.4,2.6-4.6,3.6-7.2,2.2L500.8,356.5z"/>
	</g>
	<g>
		<path class="st0" d="M512.9,291.7c-2.9,0.3-5.6-1.7-5.9-4.6l0,0c-0.4-2.9,1.7-5.6,4.7-5.9l59.7-7c2.9-0.3,5.6,1.8,5.9,4.7l0,0
			c0.4,2.9-1.7,5.6-4.7,5.9L512.9,291.7z"/>
	</g>
	<g>
		<path class="st0" d="M473.8,441.4c1,2.8-0.5,5.8-3.2,6.8l0,0c-2.8,1-5.8-0.5-6.8-3.3l-20-56.7c-1-2.8,0.5-5.8,3.2-6.8l0,0
			c2.8-1,5.8,0.5,6.8,3.2L473.8,441.4z"/>
	</g>
	<g>
		<path class="st0" d="M483.6,237.7c-1.8,2.3-5.1,2.7-7.5,0.9l0,0c-2.3-1.8-2.7-5.1-0.9-7.5l37-47.4c1.8-2.3,5.2-2.7,7.5-0.9l0,0
			c2.3,1.8,2.7,5.2,0.9,7.5L483.6,237.7z"/>
	</g>
</g>
</svg>
